<?xml version="1.0" encoding="utf-8"?>
<svg xmlns="http://www.w3.org/2000/svg" xmlns:xlink="http://www.w3.org/1999/xlink" style="margin: auto; background: none; display: block; shape-rendering: auto;" width="197px" height="197px" viewBox="0 0 100 100" preserveAspectRatio="xMidYMid">
<g transform="rotate(0 50 50)">
  <rect x="48" y="21.5" rx="2" ry="5.28" width="4" height="11" fill="#ffffff">
    <animate attributeName="opacity" values="1;0" keyTimes="0;1" dur="0.970873786407767s" begin="-0.9223300970873786s" repeatCount="indefinite"></animate>
  </rect>
</g><g transform="rotate(18 50 50)">
  <rect x="48" y="21.5" rx="2" ry="5.28" width="4" height="11" fill="#ffffff">
    <animate attributeName="opacity" values="1;0" keyTimes="0;1" dur="0.970873786407767s" begin="-0.8737864077669902s" repeatCount="indefinite"></animate>
  </rect>
</g><g transform="rotate(36 50 50)">
  <rect x="48" y="21.5" rx="2" ry="5.28" width="4" height="11" fill="#ffffff">
    <animate attributeName="opacity" values="1;0" keyTimes="0;1" dur="0.970873786407767s" begin="-0.8252427184466019s" repeatCount="indefinite"></animate>
  </rect>
</g><g transform="rotate(54 50 50)">
  <rect x="48" y="21.5" rx="2" ry="5.28" width="4" height="11" fill="#ffffff">
    <animate attributeName="opacity" values="1;0" keyTimes="0;1" dur="0.970873786407767s" begin="-0.7766990291262136s" repeatCount="indefinite"></animate>
  </rect>
</g><g transform="rotate(72 50 50)">
  <rect x="48" y="21.5" rx="2" ry="5.28" width="4" height="11" fill="#ffffff">
    <animate attributeName="opacity" values="1;0" keyTimes="0;1" dur="0.970873786407767s" begin="-0.7281553398058251s" repeatCount="indefinite"></animate>
  </rect>
</g><g transform="rotate(90 50 50)">
  <rect x="48" y="21.5" rx="2" ry="5.28" width="4" height="11" fill="#ffffff">
    <animate attributeName="opacity" values="1;0" keyTimes="0;1" dur="0.970873786407767s" begin="-0.6796116504854368s" repeatCount="indefinite"></animate>
  </rect>
</g><g transform="rotate(108 50 50)">
  <rect x="48" y="21.5" rx="2" ry="5.28" width="4" height="11" fill="#ffffff">
    <animate attributeName="opacity" values="1;0" keyTimes="0;1" dur="0.970873786407767s" begin="-0.6310679611650485s" repeatCount="indefinite"></animate>
  </rect>
</g><g transform="rotate(126 50 50)">
  <rect x="48" y="21.5" rx="2" ry="5.28" width="4" height="11" fill="#ffffff">
    <animate attributeName="opacity" values="1;0" keyTimes="0;1" dur="0.970873786407767s" begin="-0.5825242718446602s" repeatCount="indefinite"></animate>
  </rect>
</g><g transform="rotate(144 50 50)">
  <rect x="48" y="21.5" rx="2" ry="5.28" width="4" height="11" fill="#ffffff">
    <animate attributeName="opacity" values="1;0" keyTimes="0;1" dur="0.970873786407767s" begin="-0.5339805825242718s" repeatCount="indefinite"></animate>
  </rect>
</g><g transform="rotate(162 50 50)">
  <rect x="48" y="21.5" rx="2" ry="5.28" width="4" height="11" fill="#ffffff">
    <animate attributeName="opacity" values="1;0" keyTimes="0;1" dur="0.970873786407767s" begin="-0.48543689320388345s" repeatCount="indefinite"></animate>
  </rect>
</g><g transform="rotate(180 50 50)">
  <rect x="48" y="21.5" rx="2" ry="5.28" width="4" height="11" fill="#ffffff">
    <animate attributeName="opacity" values="1;0" keyTimes="0;1" dur="0.970873786407767s" begin="-0.4368932038834951s" repeatCount="indefinite"></animate>
  </rect>
</g><g transform="rotate(198 50 50)">
  <rect x="48" y="21.5" rx="2" ry="5.28" width="4" height="11" fill="#ffffff">
    <animate attributeName="opacity" values="1;0" keyTimes="0;1" dur="0.970873786407767s" begin="-0.3883495145631068s" repeatCount="indefinite"></animate>
  </rect>
</g><g transform="rotate(216 50 50)">
  <rect x="48" y="21.5" rx="2" ry="5.28" width="4" height="11" fill="#ffffff">
    <animate attributeName="opacity" values="1;0" keyTimes="0;1" dur="0.970873786407767s" begin="-0.3398058252427184s" repeatCount="indefinite"></animate>
  </rect>
</g><g transform="rotate(234 50 50)">
  <rect x="48" y="21.5" rx="2" ry="5.28" width="4" height="11" fill="#ffffff">
    <animate attributeName="opacity" values="1;0" keyTimes="0;1" dur="0.970873786407767s" begin="-0.2912621359223301s" repeatCount="indefinite"></animate>
  </rect>
</g><g transform="rotate(252 50 50)">
  <rect x="48" y="21.5" rx="2" ry="5.28" width="4" height="11" fill="#ffffff">
    <animate attributeName="opacity" values="1;0" keyTimes="0;1" dur="0.970873786407767s" begin="-0.24271844660194172s" repeatCount="indefinite"></animate>
  </rect>
</g><g transform="rotate(270 50 50)">
  <rect x="48" y="21.5" rx="2" ry="5.28" width="4" height="11" fill="#ffffff">
    <animate attributeName="opacity" values="1;0" keyTimes="0;1" dur="0.970873786407767s" begin="-0.1941747572815534s" repeatCount="indefinite"></animate>
  </rect>
</g><g transform="rotate(288 50 50)">
  <rect x="48" y="21.5" rx="2" ry="5.28" width="4" height="11" fill="#ffffff">
    <animate attributeName="opacity" values="1;0" keyTimes="0;1" dur="0.970873786407767s" begin="-0.14563106796116504s" repeatCount="indefinite"></animate>
  </rect>
</g><g transform="rotate(306 50 50)">
  <rect x="48" y="21.5" rx="2" ry="5.28" width="4" height="11" fill="#ffffff">
    <animate attributeName="opacity" values="1;0" keyTimes="0;1" dur="0.970873786407767s" begin="-0.0970873786407767s" repeatCount="indefinite"></animate>
  </rect>
</g><g transform="rotate(324 50 50)">
  <rect x="48" y="21.5" rx="2" ry="5.28" width="4" height="11" fill="#ffffff">
    <animate attributeName="opacity" values="1;0" keyTimes="0;1" dur="0.970873786407767s" begin="-0.04854368932038835s" repeatCount="indefinite"></animate>
  </rect>
</g><g transform="rotate(342 50 50)">
  <rect x="48" y="21.5" rx="2" ry="5.28" width="4" height="11" fill="#ffffff">
    <animate attributeName="opacity" values="1;0" keyTimes="0;1" dur="0.970873786407767s" begin="0s" repeatCount="indefinite"></animate>
  </rect>
</g>
<!-- [ldio] generated by https://loading.io/ --></svg>